HIERARCHY
ROOT Hips
{
	OFFSET 0.00000 0.00000 0.00000
	CHANNELS 6 Xposition Yposition Zposition Zrotation Yrotation Xrotation 
	JOINT LHipJoint
	{
		OFFSET 0 0 0
		CHANNELS 3 Zrotation Yrotation Xrotation
		JOINT LeftUpLeg
		{
			OFFSET 1.77779 -1.88989 0.48267
			CHANNELS 3 Zrotation Yrotation Xrotation
			JOINT LeftLeg
			{
				OFFSET 2.53442 -6.96327 0.00000
				CHANNELS 3 Zrotation Yrotation Xrotation
				JOINT LeftFoot
				{
					OFFSET 2.71068 -7.44755 0.00000
					CHANNELS 3 Zrotation Yrotation Xrotation
					JOINT LeftToeBase
					{
						OFFSET 0.17992 -0.49431 2.22524
						CHANNELS 3 Zrotation Yrotation Xrotation
						End Site
						{
							OFFSET 0.00000 -0.00000 1.14687
						}
					}
				}
			}
		}
	}
	JOINT RHipJoint
	{
		OFFSET 0 0 0
		CHANNELS 3 Zrotation Yrotation Xrotation
		JOINT RightUpLeg
		{
			OFFSET -1.58469 -1.88989 0.48267
			CHANNELS 3 Zrotation Yrotation Xrotation
			JOINT RightLeg
			{
				OFFSET -2.60386 -7.15404 0.00000
				CHANNELS 3 Zrotation Yrotation Xrotation
				JOINT RightFoot
				{
					OFFSET -2.73334 -7.50979 0.00000
					CHANNELS 3 Zrotation Yrotation Xrotation
					JOINT RightToeBase
					{
						OFFSET -0.25618 -0.70384 2.21822
						CHANNELS 3 Zrotation Yrotation Xrotation
						End Site
						{
							OFFSET -0.00000 -0.00000 1.16381
						}
					}
				}
			}
		}
	}
	JOINT LowerBack
	{
		OFFSET 0 0 0
		CHANNELS 3 Zrotation Yrotation Xrotation
		JOINT Spine
		{
			OFFSET 0.03410 2.01612 -0.22230
			CHANNELS 3 Zrotation Yrotation Xrotation
			JOINT Spine1
			{
				OFFSET 0.03465 2.03012 0.00937
				CHANNELS 3 Zrotation Yrotation Xrotation
				JOINT Neck
				{
					OFFSET 0 0 0
					CHANNELS 3 Zrotation Yrotation Xrotation
					JOINT Neck1
					{
						OFFSET -0.00219 1.70459 0.20857
						CHANNELS 3 Zrotation Yrotation Xrotation
						JOINT Head
						{
							OFFSET 0.02518 1.72339 -0.22179
							CHANNELS 3 Zrotation Yrotation Xrotation
							End Site
							{
								OFFSET 0.00282 1.74122 -0.09823
							}
						}
					}
				}
				JOINT LeftShoulder
				{
					OFFSET 0 0 0
					CHANNELS 3 Zrotation Yrotation Xrotation
					JOINT LeftArm
					{
						OFFSET 3.36358 1.00547 -0.37661
						CHANNELS 3 Zrotation Yrotation Xrotation
						JOINT LeftForeArm
						{
							OFFSET 5.06507 -0.00000 0.00000
							CHANNELS 3 Zrotation Yrotation Xrotation
							JOINT LeftHand
							{
								OFFSET 3.60196 -0.00000 0.00000
								CHANNELS 3 Zrotation Yrotation Xrotation
								JOINT LeftFingerBase
								{
									OFFSET 0 0 0
									CHANNELS 3 Zrotation Yrotation Xrotation
									JOINT LeftHandIndex1
									{
										OFFSET 0.45035 -0.00000 0.00000
										CHANNELS 3 Zrotation Yrotation Xrotation
										End Site
										{
											OFFSET 0.36308 -0.00000 0.00000
										}
									}
								}
								JOINT LThumb
								{
									OFFSET 0 0 0
									CHANNELS 3 Zrotation Yrotation Xrotation
									End Site
									{
										OFFSET 0.36862 -0.00000 0.36862
									}
								}
							}
						}
					}
				}
				JOINT RightShoulder
				{
					OFFSET 0 0 0
					CHANNELS 3 Zrotation Yrotation Xrotation
					JOINT RightArm
					{
						OFFSET -3.50159 0.80383 -0.71526
						CHANNELS 3 Zrotation Yrotation Xrotation
						JOINT RightForeArm
						{
							OFFSET -5.36394 -0.00000 0.00000
							CHANNELS 3 Zrotation Yrotation Xrotation
							JOINT RightHand
							{
								OFFSET -3.58035 -0.00000 0.00000
								CHANNELS 3 Zrotation Yrotation Xrotation
								JOINT RightFingerBase
								{
									OFFSET 0 0 0
									CHANNELS 3 Zrotation Yrotation Xrotation
									JOINT RightHandIndex1
									{
										OFFSET -0.66375 -0.00000 0.00000
										CHANNELS 3 Zrotation Yrotation Xrotation
										End Site
										{
											OFFSET -0.53513 -0.00000 0.00000
										}
									}
								}
								JOINT RThumb
								{
									OFFSET 0 0 0
									CHANNELS 3 Zrotation Yrotation Xrotation
									End Site
									{
										OFFSET -0.54330 -0.00000 0.54330
									}
								}
							}
						}
					}
				}
			}
		}
	}
}
MOTION
Frames: 8
Frame Time: .0083333
0.1227 17.9687 9.7369 -7.9063 -3.4027 -0.4371 0.0000 0.0000 0.0000 -7.6069 -12.3353 -25.2781 1.7720 8.3741 23.8563 0.0590 3.5967 -7.2742 0.1738 -2.6859 -7.4055 0.0000 0.0000 0.0000 35.1387 3.7755 8.3636 -1.3154 -7.2645 20.5013 -1.0604 0.6841 -19.2524 -0.0977 -2.0157 5.5489 8.4956 1.9717 9.5419 2.3027 3.7108 -0.3464 -2.8524 1.6217 -5.3493 -0.8959 -3.1570 -16.7607 -0.3120 -4.0943 22.4424 -0.5059 -2.0049 9.9116 -0.0000 -0.0000 0.0000 -87.6282 7.0035 21.3785 11.5913 -19.1889 -1.9659 -0.0000 0.0000 -2.8795 28.5986 19.9187 10.5221 -7.1250 0.0000 -0.0000 0.2024 52.4065 0.0369 -0.0000 -0.0000 0.0000 85.6101 10.5757 19.2803 -16.0979 25.6532 -3.6883 0.0000 -0.0000 -0.1429 -21.2432 23.8874 -8.9459 7.1250 -0.0000 -0.0000 4.9387 -4.6452 4.5398
0.1334 17.9493 9.9219 -8.0402 -3.6032 -0.3699 0.0000 0.0000 0.0000 -7.2345 -12.8734 -24.4916 1.3786 7.4300 20.9956 0.0619 3.7676 -7.5369 0.1743 -2.6894 -7.4152 0.0000 0.0000 0.0000 35.1375 3.4389 8.9888 -1.2813 -7.1734 20.2301 -1.0583 1.0772 -19.1166 -0.0927 -1.9640 5.4061 8.6666 2.0698 9.4841 2.3095 3.8502 -0.2997 -2.9526 1.6913 -5.2420 -0.9801 -3.1291 -16.8418 -0.2067 -4.0557 22.3373 -0.4503 -1.9819 9.8939 -0.0000 0.0000 0.0000 -87.6905 6.8632 20.9982 11.2687 -18.6990 -1.8612 -0.0000 0.0000 -2.5555 28.5065 18.3934 9.7244 -7.1250 0.0000 -0.0000 0.3919 50.7063 0.0551 -0.0000 0.0000 0.0000 85.5836 10.9229 19.3003 -16.3720 26.0225 -3.8077 0.0000 -0.0000 -0.6023 -20.9282 23.2382 -8.5805 7.1250 -0.0000 -0.0000 5.0716 -5.3728 4.5929
0.1491 17.9380 10.1127 -8.0466 -3.8138 -0.2281 0.0000 0.0000 0.0000 -6.9519 -13.6698 -23.6945 1.0459 6.5038 18.2534 0.0518 4.1900 -7.7068 0.2092 -2.9447 -8.1247 0.0000 0.0000 0.0000 34.9482 3.2137 9.5181 -1.2669 -7.1344 20.1140 -1.0556 1.5646 -18.9606 -0.0729 -1.7414 4.7914 8.7539 2.1690 9.2668 2.2812 3.9622 -0.2641 -3.0312 1.7528 -5.0614 -1.0599 -3.1589 -16.7072 -0.1088 -4.0977 22.0587 -0.4027 -1.9987 9.7740 -0.0000 0.0000 0.0000 -87.7458 6.7932 20.8655 11.0153 -18.3117 -1.7807 -0.0000 0.0000 -2.6070 28.8184 19.3439 10.3281 -7.1250 0.0000 -0.0000 0.5396 51.8138 0.0905 -0.0000 0.0000 0.0000 85.5296 11.0778 19.3200 -16.6947 26.4536 -3.9504 0.0000 -0.0000 -1.0108 -20.8178 22.6945 -8.3455 7.1250 -0.0000 -0.0000 5.0908 -5.9561 4.5535
0.1666 17.9189 10.3048 -7.8877 -3.8896 -0.0709 0.0000 0.0000 0.0000 -6.9093 -14.4108 -23.0655 0.7876 5.6654 15.8165 0.0439 4.4839 -7.8186 0.2116 -2.9617 -8.1721 0.0000 0.0000 0.0000 34.5901 2.9853 10.0647 -1.2589 -7.1126 20.0493 -1.0765 2.0502 -19.0336 -0.0275 -1.0714 2.9453 8.6389 2.1895 9.0225 2.2294 3.9495 -0.3018 -3.0084 1.7525 -4.9681 -1.0975 -3.1694 -16.6039 -0.0297 -4.1227 22.0228 -0.3700 -2.0050 9.7449 0.0000 0.0000 0.0000 -87.8847 7.0532 20.5837 10.9025 -18.1386 -1.7454 -0.0000 0.0000 -2.5269 28.8539 20.7011 11.0214 -7.1250 0.0000 -0.0000 0.3085 53.3175 0.0631 0.0000 0.0000 0.0000 85.5476 11.2848 19.1520 -16.6760 26.4287 -3.9420 0.0000 -0.0000 -0.8443 -20.9916 22.8548 -8.4762 7.1250 -0.0000 -0.0000 4.9966 -5.7612 4.4873
0.1820 17.8968 10.4904 -7.5404 -3.9521 -0.0264 0.0000 0.0000 0.0000 -7.2526 -14.6717 -22.5331 0.5956 4.9408 13.7397 0.0539 4.4362 -8.0442 0.1993 -2.8745 -7.9295 0.0000 0.0000 0.0000 34.1023 2.8339 10.6596 -1.2668 -7.1342 20.1134 -1.0899 2.3520 -19.0876 -0.0115 -0.6913 1.8998 8.2693 2.2444 9.0304 2.1373 3.9843 -0.3657 -2.9073 1.7731 -5.0530 -1.0913 -3.1624 -16.7386 -0.0080 -4.1208 22.1895 -0.3677 -1.9994 9.8297 0.0000 -0.0000 0.0000 -87.9957 7.2882 20.2428 10.7035 -17.8323 -1.6840 -0.0000 0.0000 -1.8251 29.3840 20.9317 11.3744 -7.1250 0.0000 -0.0000 0.8200 53.6780 0.1750 0.0000 -0.0000 0.0000 85.4579 11.5863 19.0507 -16.5148 26.2136 -3.8705 0.0000 -0.0000 -0.8527 -21.0109 23.0035 -8.5361 7.1250 -0.0000 -0.0000 4.9983 -5.6033 4.5039
0.1906 17.8726 10.6804 -7.4751 -4.1675 -0.1256 0.0000 0.0000 0.0000 -7.4558 -14.2474 -21.9716 0.4631 4.3653 12.1066 0.0862 4.0692 -8.5003 0.2079 -2.9355 -8.0993 0.0000 0.0000 0.0000 34.0110 2.7937 11.3147 -1.3022 -7.2294 20.3967 -1.0878 2.3390 -19.0715 -0.0017 -0.2678 0.7357 8.0704 2.3035 9.1109 2.1498 4.0509 -0.3647 -2.7967 1.8092 -5.1040 -1.0935 -3.1605 -16.7767 -0.0613 -4.1060 22.3462 -0.3866 -1.9980 9.8913 -0.0000 0.0000 0.0000 -88.1110 7.3299 19.3381 10.2064 -17.0619 -1.5350 -0.0000 0.0000 -0.5090 29.7016 18.6805 10.3539 -7.1250 0.0000 -0.0000 1.5589 51.2413 0.2397 -0.0000 0.0000 0.0000 85.4495 11.8143 18.9113 -16.4264 26.0954 -3.8316 0.0000 -0.0000 -0.6466 -20.9290 22.8510 -8.4476 7.1250 -0.0000 -0.0000 5.0354 -5.7752 4.5210
0.2021 17.8452 10.8647 -7.4574 -4.3034 -0.0925 0.0000 0.0000 0.0000 -7.6324 -13.8530 -21.6537 0.3824 3.9712 10.9958 0.1048 3.9320 -8.8234 0.2752 -3.3743 -9.3227 0.0000 0.0000 0.0000 33.9520 2.8159 11.7044 -1.3631 -7.3897 20.8750 -1.0559 2.5389 -18.7390 -0.0051 -0.4631 1.2726 7.9485 2.3231 9.1214 2.1714 4.0679 -0.3890 -2.7102 1.8190 -5.1435 -0.9658 -3.1651 -16.6755 -0.1367 -4.1306 22.3565 -0.4354 -2.0079 9.8710 -0.0000 -0.0000 0.0000 -88.1905 7.4466 18.7590 9.8783 -16.5490 -1.4401 -0.0000 -0.0000 0.1580 28.5185 12.4977 6.7064 -7.1250 0.0000 -0.0000 1.1593 44.1348 -0.0248 -0.0000 -0.0000 0.0000 85.4268 11.8963 19.0083 -16.4833 26.1715 -3.8567 0.0000 -0.0000 -0.5500 -21.0235 22.8937 -8.5036 7.1250 -0.0000 -0.0000 4.9803 -5.7155 4.4769
0.2177 17.8169 11.0407 -7.3281 -4.1062 0.0601 0.0000 0.0000 0.0000 -8.0860 -13.4042 -21.7939 0.3494 3.7976 10.5081 0.1107 3.4981 -8.5621 0.3213 -3.6435 -10.0758 0.0000 0.0000 0.0000 33.7743 2.8131 11.8291 -1.4419 -7.5912 21.4793 -1.0644 2.8909 -18.7476 -0.0027 -0.3365 0.9245 7.8129 2.2100 9.2103 2.1343 3.9173 -0.4886 -2.6638 1.7386 -5.3204 -1.0030 -3.1836 -16.9580 -0.1051 -4.1556 22.6426 -0.4306 -2.0159 10.0282 0.0000 0.0000 0.0000 -88.2675 7.7033 18.7063 9.9007 -16.5842 -1.4465 -0.0000 -0.0000 0.1020 29.6280 19.0570 10.5196 -7.1250 0.0000 -0.0000 1.4225 51.6471 0.2329 0.0000 0.0000 0.0000 85.5045 12.0030 19.0391 -16.5640 26.2795 -3.8923 0.0000 -0.0000 -0.4497 -21.2671 22.7997 -8.5772 7.1250 -0.0000 -0.0000 4.8195 -5.7735 4.3259
